<?xml version="1.0" standalone="no"?>
<!DOCTYPE svg PUBLIC "-//W3C//DTD SVG 20010904//EN"
 "http://www.w3.org/TR/2001/REC-SVG-20010904/DTD/svg10.dtd">
<svg version="1.0" xmlns="http://www.w3.org/2000/svg"
 width="485.000000pt" height="533.000000pt" viewBox="0 0 485.000000 533.000000"
 preserveAspectRatio="xMidYMid meet">

<g transform="translate(0.000000,533.000000) scale(0.100000,-0.100000)"
fill="#000000" stroke="none">
<path d="M2295 5270 c-60 -10 -288 -46 -505 -80 -1707 -265 -1602 -247 -1631
-279 l-27 -29 -7 -243 c-11 -397 0 -2310 14 -2404 32 -212 81 -388 158 -560
239 -541 727 -948 1738 -1452 313 -156 340 -167 413 -161 70 5 305 112 632
289 433 234 690 404 960 635 367 316 582 690 666 1159 33 184 37 382 32 1555
-4 1057 -6 1158 -21 1187 -10 18 -26 37 -36 42 -10 6 -236 44 -502 86 -963
151 -1763 275 -1769 274 -3 0 -54 -9 -115 -19z m800 -345 c330 -52 773 -122
984 -155 211 -33 387 -60 392 -60 13 0 11 -2288 -2 -2408 -21 -192 -65 -354
-141 -511 l-41 -86 -117 585 c-64 322 -120 595 -124 608 -11 33 -44 42 -161
42 l-104 0 -3 -387 -3 -388 -28 -57 c-31 -64 -89 -120 -157 -152 -43 -20 -61
-21 -448 -24 -350 -3 -410 -1 -460 13 -31 9 -67 23 -79 31 l-23 14 0 -434 c0
-239 4 -437 8 -440 5 -3 24 7 43 23 115 94 361 220 547 281 264 86 549 123
800 102 81 -7 157 -15 169 -18 23 -6 23 -7 -10 -47 -17 -23 -69 -80 -114 -128
l-82 -86 -228 -6 c-540 -15 -872 -123 -1197 -390 -38 -32 -77 -57 -87 -57 -10
0 -56 30 -101 67 -334 269 -704 383 -1249 383 l-156 0 -84 88 c-46 48 -99 106
-117 128 -32 41 -32 42 -9 47 57 14 322 29 412 23 453 -29 871 -184 1193 -443
57 -46 108 -81 113 -78 5 4 9 313 9 781 l0 775 -92 60 c-372 243 -844 356
-1370 330 -109 -6 -131 -9 -147 -26 -15 -16 -45 -151 -138 -612 -65 -326 -121
-593 -124 -593 -17 0 -105 224 -135 340 -49 194 -47 149 -51 1438 -3 971 -1
1212 9 1212 7 0 112 16 233 35 234 37 514 81 1245 195 250 39 475 75 500 80
56 11 9 17 725 -95z m-1690 -3930 c343 -24 659 -142 885 -330 66 -55 118 -72
171 -56 21 6 86 48 146 92 186 139 393 223 665 269 110 18 357 42 366 35 10
-8 -308 -211 -538 -342 -91 -52 -278 -151 -417 -220 l-252 -125 -213 105
c-251 124 -481 248 -656 354 -140 85 -352 223 -352 230 0 2 26 2 58 -1 31 -3
93 -8 137 -11z"/>
<path d="M2317 4640 c-97 -31 -163 -90 -209 -188 -28 -57 -30 -70 -26 -150 3
-68 9 -99 29 -142 32 -68 97 -133 169 -168 48 -24 67 -27 150 -27 83 0 102 3
151 28 67 32 142 109 171 175 28 64 35 164 15 233 -34 116 -118 202 -236 239
-77 25 -138 25 -214 0z"/>
<path d="M1387 4396 c-133 -48 -207 -160 -194 -296 9 -101 64 -182 161 -233
62 -33 174 -31 242 5 100 53 153 140 154 254 0 55 -5 81 -26 121 -62 125 -215
192 -337 149z"/>
<path d="M3302 4391 c-70 -24 -118 -65 -156 -131 -26 -47 -31 -64 -31 -130 0
-91 24 -149 85 -209 107 -104 266 -106 379 -5 126 113 126 305 1 417 -81 73
-177 93 -278 58z"/>
<path d="M2218 3850 c-94 -6 -116 -11 -183 -43 -91 -44 -169 -118 -208 -198
-37 -76 -50 -196 -40 -369 l8 -135 67 -17 c106 -28 311 -105 437 -164 63 -30
120 -53 127 -50 6 2 13 35 16 75 6 87 40 159 103 222 88 88 162 109 388 109
l137 0 0 93 c0 108 -15 171 -60 256 -41 77 -113 144 -194 182 -52 24 -85 32
-177 39 -126 11 -259 11 -421 0z m649 -556 c-3 -3 -12 -4 -19 -1 -8 3 -5 6 6
6 11 1 17 -2 13 -5z"/>
<path d="M1223 3735 c-104 -32 -204 -121 -236 -211 -22 -62 -31 -162 -20 -239
l8 -60 125 -7 c157 -9 262 -23 415 -54 66 -13 125 -24 131 -24 8 0 13 56 17
188 5 198 10 228 63 334 15 32 26 59 23 62 -2 2 -44 9 -94 15 -124 15 -379 13
-432 -4z m-236 -457 c-3 -8 -6 -5 -6 6 -1 11 2 17 5 13 3 -3 4 -12 1 -19z"/>
<path d="M3175 3738 c-33 -5 -61 -11 -63 -13 -2 -2 11 -31 28 -64 47 -95 63
-169 59 -285 l-4 -100 120 3 c126 3 229 -10 278 -36 16 -8 49 -33 73 -55 l44
-41 81 42 c44 22 87 41 95 41 23 0 19 182 -5 261 -39 123 -124 211 -235 244
-57 17 -370 19 -471 3z m42 -380 c-3 -8 -6 -5 -6 6 -1 11 2 17 5 13 3 -3 4
-12 1 -19z"/>
<path d="M2665 3117 c-22 -13 -49 -40 -62 -62 -23 -40 -23 -43 -23 -450 0
-406 1 -410 23 -450 14 -26 37 -48 67 -63 44 -22 49 -22 441 -22 394 0 396 0
439 23 30 16 51 37 67 67 23 43 23 45 23 445 0 400 0 402 -23 445 -16 30 -37
51 -67 67 -43 23 -45 23 -444 23 -397 0 -401 -1 -441 -23z m797 -244 c21 -20
38 -43 38 -50 0 -27 -460 -513 -486 -513 -22 0 -264 240 -264 262 0 11 18 38
39 60 48 47 48 47 153 -51 l75 -70 64 72 c129 145 312 327 327 327 9 0 33 -17
54 -37z"/>
</g>
</svg>
